<svg width="172" height="35" viewBox="0 0 172 35" fill="none" xmlns="http://www.w3.org/2000/svg">
<path d="M8.37165 17.644L4.49183 21.4494L0.615356 17.644L4.49183 13.8386L8.37165 17.644ZM17.7778 8.40363L24.4208 14.9282L28.2972 11.1227L17.7778 0.796051L7.25834 11.1227L11.1348 14.9282L17.7778 8.40363ZM31.0671 13.8386L27.1906 17.644L31.0671 21.4494L34.9402 17.644L31.0671 13.8386ZM17.7778 26.8843L11.1348 20.3631L7.25834 24.1652L17.7778 34.4919L28.2972 24.1652L24.4208 20.3631L17.7778 26.8843ZM17.7778 21.4494L21.6543 17.644L17.7778 13.8386L13.9013 17.644L17.7778 21.4494ZM58.6886 21.8148V21.7622C58.6886 19.2801 57.3473 18.039 55.1643 17.2226C56.5056 16.4819 57.639 15.3199 57.639 13.2361V13.1835C57.639 10.28 55.2716 8.40363 51.4253 8.40363H42.6932V26.8843H51.6466C55.8953 26.8843 58.6953 25.1956 58.6953 21.8148H58.6886ZM53.5245 13.9143C53.5245 15.287 52.3676 15.8697 50.54 15.8697H46.7272V11.9688H50.815C52.5621 11.9688 53.5312 12.6535 53.5312 13.8682L53.5245 13.9143ZM54.5741 21.3079C54.5741 22.6806 53.4708 23.3126 51.6399 23.3126H46.7272V19.2537H51.5125C53.6385 19.2537 54.5808 20.0207 54.5808 21.2618L54.5741 21.3079ZM67.3906 26.8843V8.40363H63.2358V26.8843H67.3906ZM89.6535 26.8843V8.40363H85.5523V19.7837L76.733 8.40363H72.9135V26.8843H77.0013V15.1356L86.1157 26.8843H89.6535ZM112.594 26.8843L104.512 8.27195H100.693L92.6279 26.8843H96.8497L98.5767 22.7399H106.538L108.258 26.8843H112.594ZM105.065 19.1484H100.049L102.55 13.1571L105.065 19.1484ZM132.335 26.8843V8.40363H128.234V19.7837L119.411 8.40363H115.595V26.8843H119.679V15.1356L128.797 26.8843H132.335ZM153.712 23.9019L151.08 21.2881C149.601 22.6049 148.283 23.4509 146.131 23.4509C142.905 23.4509 140.671 20.8174 140.671 17.644V17.5913C140.671 14.4245 142.958 11.8371 146.131 11.8371C148.012 11.8371 149.484 12.6271 150.946 13.9209L153.572 10.9384C151.825 9.24965 149.702 8.08761 146.151 8.08761C140.369 8.08761 136.335 12.3901 136.335 17.6341V17.6868C136.335 22.9933 140.45 27.1905 145.99 27.1905C149.615 27.2004 151.764 25.933 153.699 23.9019H153.712ZM171.385 26.8843V23.2633H161.15V19.3755H170.026V15.7544H161.15V12.0214H171.237V8.40034H157.036V26.8811L171.385 26.8843Z" fill="white"/>
</svg>
