<svg width="179" height="31" viewBox="0 0 179 31" fill="none" xmlns="http://www.w3.org/2000/svg">
<path d="M23.9776 7.19307C25.1764 5.18492 26.3342 3.15485 27.5498 1.15546H34.0515C34.1462 1.16005 34.2402 1.17425 34.3318 1.19781C34.1155 1.51181 33.9342 1.8448 33.7438 2.17195C32.1757 4.86994 30.6123 7.56939 29.0534 10.2703C28.3983 11.37 27.789 12.4946 27.1248 13.5885L27.0593 13.6104L27.0471 13.7477C23.9903 19.0054 20.9436 24.267 17.907 29.5326C11.9385 29.5384 5.96951 29.5384 0 29.5326C0.339708 28.852 0.741873 28.2021 1.11966 27.5405C2.81973 24.5436 4.56396 21.5729 6.23965 18.576C9.90687 18.5702 13.5741 18.5702 17.2413 18.576C19.5065 14.7934 21.723 10.9816 23.9715 7.19307H23.9776Z" fill="white"/>
<path d="M91.0767 1.07803V29.8787H96.282V9.62621L105.777 22.9648L115.196 9.30929V29.8787H120.554V1.07803H114.791L105.815 14.3728L96.739 1.07803H91.0767Z" fill="white"/>
<path d="M66.7289 8.50607H70.1306V30.1212H66.7289V8.50607Z" fill="white"/>
<path d="M66.4364 0.49823H70.4231V4.1246H66.4364V0.49823Z" fill="white"/>
<path d="M76.6307 2.31213H80.1847V8.50602H87.1921V11.5248H80.1847V24.3654C80.1786 24.8601 80.2983 25.3489 80.5335 25.7893C81.1353 26.8847 82.7698 28.1845 87.1921 26.6656V29.4639C87.1921 29.4639 83.1552 31.6546 79.4992 29.6596C79.4992 29.6596 77.6833 28.9206 76.9202 26.4261C76.7219 25.7579 76.6244 25.0659 76.6307 24.3712V11.4766L73.6343 11.5248V8.50602H76.6551L76.6307 2.31213Z" fill="white"/>
<path d="M126.038 1.07803V30.0729H148.634V25.3994H131.548V17.707H146.603V13.1065H131.522V5.78077H148.457V1.07803H126.038Z" fill="white"/>
<path d="M150.754 1.07803H157.19L164.578 11.2576L171.909 1.07803H178.345L167.834 15.2184L179 30.0481H172.221L164.604 19.2172L156.619 30.0729H150.183L161.189 15.3469L150.754 1.07803Z" fill="white"/>
<path d="M56.3183 15.03C56.3183 15.03 61.2951 13.2293 60.9904 8.04456C60.9904 8.04456 60.9493 3.05849 55.0936 1.51915C54.1199 1.26904 53.1157 1.14526 52.1078 1.15111H38.064L38.1021 29.9517H53.2214C53.2214 29.9517 62.069 29.7692 62.692 22.2112C62.692 22.2112 63.3257 16.9287 56.3183 15.03ZM41.6941 4.12464H50.6575C57.6893 4.10127 57.4867 8.84783 57.4867 8.84783C57.5919 14.2633 51.1389 14.1537 51.1389 14.1537H41.6941V4.12464ZM52.6623 26.9081H41.6941V16.8805H52.1809C59.2127 16.8556 59.0101 21.6022 59.0101 21.6022C59.1152 27.0176 52.6623 26.9081 52.6623 26.9081Z" fill="white"/>
</svg>
