<svg width="36" height="34" viewBox="0 0 36 34" fill="none" xmlns="http://www.w3.org/2000/svg">
<path d="M10 1H36V5H10V1ZM3 6C2.20435 6 1.44129 5.68393 0.87868 5.12132C0.316071 4.55871 0 3.79565 0 3C0 2.20435 0.316071 1.44129 0.87868 0.87868C1.44129 0.316071 2.20435 0 3 0C3.79565 0 4.55871 0.316071 5.12132 0.87868C5.68393 1.44129 6 2.20435 6 3C6 3.79565 5.68393 4.55871 5.12132 5.12132C4.55871 5.68393 3.79565 6 3 6ZM3 20C2.20435 20 1.44129 19.6839 0.87868 19.1213C0.316071 18.5587 0 17.7956 0 17C0 16.2044 0.316071 15.4413 0.87868 14.8787C1.44129 14.3161 2.20435 14 3 14C3.79565 14 4.55871 14.3161 5.12132 14.8787C5.68393 15.4413 6 16.2044 6 17C6 17.7956 5.68393 18.5587 5.12132 19.1213C4.55871 19.6839 3.79565 20 3 20ZM3 33.8C2.20435 33.8 1.44129 33.4839 0.87868 32.9213C0.316071 32.3587 0 31.5956 0 30.8C0 30.0044 0.316071 29.2413 0.87868 28.6787C1.44129 28.1161 2.20435 27.8 3 27.8C3.79565 27.8 4.55871 28.1161 5.12132 28.6787C5.68393 29.2413 6 30.0044 6 30.8C6 31.5956 5.68393 32.3587 5.12132 32.9213C4.55871 33.4839 3.79565 33.8 3 33.8ZM10 15H36V19H10V15ZM10 29H36V33H10V29Z" fill="url(#paint0_linear_46_388)"/>
<defs>
<linearGradient id="paint0_linear_46_388" x1="18" y1="0" x2="18" y2="33.8" gradientUnits="userSpaceOnUse">
<stop stop-color="#F91A9F"/>
<stop offset="1" stop-color="#9933A2"/>
</linearGradient>
</defs>
</svg>
