<svg width="200" height="39" viewBox="0 0 200 39" fill="none" xmlns="http://www.w3.org/2000/svg">
<g clip-path="url(#clip0_7_73)">
<path d="M67.7509 21.4303H75.289C76.3489 21.4303 77.2077 22.2983 77.2077 23.3582C77.2077 24.4272 76.3489 25.2861 75.289 25.2861H66.1976C66.0515 25.2861 65.9144 25.3409 65.8139 25.4323L63.0728 27.7988C62.6525 28.1643 62.9083 28.8495 63.4565 28.8495H74.8321C74.8321 28.8495 74.8413 28.8495 74.8413 28.8404C74.8413 28.8313 74.8504 28.8313 74.8504 28.8313C74.9966 28.8404 75.1336 28.8495 75.289 28.8495C78.3042 28.8495 80.7529 26.3917 80.7529 23.3582C80.7529 20.48 78.5509 18.1136 75.7367 17.8851C75.7367 17.8851 75.7275 17.8851 75.7275 17.876C75.7275 17.8669 75.7275 17.8669 75.7184 17.8669H67.6047C66.5449 17.8669 65.686 16.9988 65.686 15.9389C65.686 14.8699 66.5449 14.011 67.6047 14.011H76.6778C76.824 14.011 76.9702 13.9562 77.0798 13.8557L79.629 11.4892C80.0311 11.1237 79.7661 10.4476 79.227 10.4476H67.7509C67.7052 10.4476 67.6504 10.4476 67.6047 10.4476C64.5895 10.4476 62.1408 12.9055 62.1408 15.9389C62.1408 18.9724 64.5895 21.4303 67.6047 21.4303C67.6504 21.4303 67.7052 21.4303 67.7509 21.4303Z" fill="white"/>
<path d="M111.636 10.4384C111.307 10.4384 111.042 10.7034 111.042 11.0415V28.2556C111.042 28.5846 111.307 28.8587 111.636 28.8587H125.433C125.597 28.8587 125.753 28.7856 125.871 28.6668L127.598 26.812C127.955 26.4282 127.69 25.8069 127.16 25.8069H115.117C114.788 25.8069 114.523 25.5419 114.523 25.2039V11.0415C114.523 10.7126 114.258 10.4384 113.929 10.4384H111.636Z" fill="white"/>
<path fill-rule="evenodd" clip-rule="evenodd" d="M89.5336 10.4384C87.7701 10.5207 86.3539 11.9369 86.2717 13.7004V25.277C86.2717 25.3226 86.2717 25.3775 86.2717 25.4231C86.2717 27.2597 87.7153 28.7582 89.5336 28.8312H102.051C103.86 28.749 105.313 27.2505 105.313 25.4231C105.313 25.3775 105.313 25.3226 105.313 25.277V13.7095C105.24 11.9461 103.824 10.5207 102.06 10.4476H89.5336V10.4384ZM91.8727 13.7095C90.7671 13.7552 89.8808 14.6506 89.8351 15.7653V23.0475C89.8351 23.0749 89.8351 23.1115 89.8351 23.1389C89.8351 24.2902 90.7397 25.2404 91.8727 25.2861H99.7213C100.854 25.2404 101.759 24.2902 101.759 23.1389C101.759 23.1115 101.759 23.0749 101.759 23.0475V15.7653C101.713 14.6506 100.827 13.7643 99.7213 13.7095H91.8727Z" fill="white"/>
<path fill-rule="evenodd" clip-rule="evenodd" d="M147.654 28.2556C147.654 28.5846 147.919 28.8587 148.248 28.8587H150.587C150.916 28.8587 151.181 28.5937 151.181 28.2556V14.0019C151.181 13.9562 151.181 13.9014 151.181 13.8557C151.181 12.0192 149.746 10.5207 147.956 10.4476H135.94C135.895 10.4476 135.84 10.4476 135.794 10.4476C133.93 10.4476 132.423 11.9735 132.423 13.8648C132.423 13.9105 132.423 13.9654 132.423 14.011V28.2556C132.423 28.5846 132.688 28.8587 133.017 28.8587H135.356C135.685 28.8587 135.95 28.5937 135.95 28.2556V22.3257C135.95 21.9968 136.215 21.7227 136.543 21.7227H147.088C147.417 21.7227 147.681 21.9876 147.681 22.3257V28.2556H147.654ZM135.922 18.4516V15.4912C135.922 14.34 136.845 13.408 137.978 13.408H145.598C146.731 13.408 147.654 14.34 147.654 15.4912V18.4516C147.654 18.7806 147.389 19.0547 147.06 19.0547H136.516C136.187 19.0547 135.922 18.7806 135.922 18.4516Z" fill="white"/>
<path fill-rule="evenodd" clip-rule="evenodd" d="M197.04 28.8495C196.711 28.8495 196.446 28.5845 196.446 28.2465V22.3166C196.446 21.9876 196.181 21.7135 195.852 21.7135H185.189C184.86 21.7135 184.595 21.9785 184.595 22.3166V28.2465C184.595 28.5754 184.33 28.8495 184.001 28.8495H181.644C181.315 28.8495 181.05 28.5845 181.05 28.2465V14.0019C181.05 13.9562 181.05 13.9014 181.05 13.8557C181.05 11.9735 182.576 10.4384 184.458 10.4384C184.504 10.4384 184.558 10.4384 184.604 10.4384H196.756C198.566 10.5207 200.018 12.0191 200.018 13.8466C200.018 13.8922 200.018 13.9471 200.018 13.9927V28.2373C200.018 28.5663 199.753 28.8404 199.424 28.8404H197.04V28.8495ZM184.586 15.4912V18.4516C184.586 18.7805 184.851 19.0546 185.18 19.0546H195.843C196.172 19.0546 196.437 18.7897 196.437 18.4516V15.4912C196.437 14.3399 195.505 13.408 194.362 13.408H186.66C185.509 13.408 184.586 14.3399 184.586 15.4912Z" fill="white"/>
<path d="M159.98 10.4384C160.153 10.4384 160.318 10.5115 160.428 10.6486L170.917 23.1572C171.273 23.5775 171.959 23.3216 171.959 22.7643V11.0415C171.959 10.7126 172.223 10.4384 172.552 10.4384H174.891C175.22 10.4384 175.485 10.7034 175.485 11.0415V28.2556C175.485 28.5845 175.22 28.8587 174.891 28.8587H171.986C171.977 28.8587 171.968 28.8495 171.968 28.8404C171.968 28.8312 171.968 28.8312 171.959 28.8221L161.286 16.4049C160.93 15.9846 160.245 16.2496 160.245 16.7978V28.2648C160.245 28.5937 159.98 28.8678 159.651 28.8678H157.294C156.965 28.8678 156.7 28.6028 156.7 28.2648V11.0415C156.7 10.7126 156.965 10.4384 157.294 10.4384H159.98Z" fill="white"/>
<path d="M7.74816 29.4891C8.04054 29.1968 8.43344 29.0323 8.8446 29.0323H46.9002C47.5947 29.0323 47.9419 29.8729 47.4485 30.3572L39.9287 37.8769C39.6363 38.1693 39.2434 38.3338 38.8323 38.3338H0.776621C0.0822082 38.3338 -0.264998 37.4932 0.2284 37.0089L7.74816 29.4891Z" fill="white"/>
<path d="M7.74816 1.42023C8.04054 1.12785 8.43344 0.963379 8.8446 0.963379H46.9002C47.5947 0.963379 47.9419 1.80398 47.4485 2.28825L39.9287 9.808C39.6363 10.1004 39.2434 10.2649 38.8323 10.2649H0.776621C0.0822082 10.2649 -0.264998 9.42425 0.2284 8.93999L7.74816 1.42023Z" fill="white"/>
<path d="M39.9287 15.3633C39.6363 15.0709 39.2434 14.9065 38.8323 14.9065H0.776621C0.0822082 14.9065 -0.264998 15.7471 0.2284 16.2313L7.74816 23.742C8.04054 24.0343 8.43344 24.1988 8.8446 24.1988H46.9002C47.5947 24.1988 47.9419 23.3582 47.4485 22.8739L39.9287 15.3633Z" fill="white"/>
</g>
<defs>
<clipPath id="clip0_7_73">
<rect width="200" height="37.3612" fill="white" transform="translate(0 0.963379)"/>
</clipPath>
</defs>
</svg>
