<svg width="201" height="31" viewBox="0 0 201 31" fill="none" xmlns="http://www.w3.org/2000/svg">
<path d="M40.9914 9.02032C33.7359 9.02032 28.0779 13.6336 28.0779 19.8405C28.0779 26.0473 33.6028 30.6326 40.9914 30.6326C48.3801 30.6326 54.0048 25.9635 54.0048 19.8125C54.0048 13.6895 48.4799 9.02032 40.9914 9.02032ZM41.058 26.1592C36.931 26.1592 33.9023 23.4751 33.9023 19.8405C33.9023 16.1778 36.8644 13.4938 41.0247 13.4938C45.2183 13.4938 48.2137 16.2337 48.2137 19.8405C48.2137 23.4472 45.185 26.1592 41.058 26.1592ZM55.6023 13.7454H59.1968V30.2412H64.9546V9.4397H55.6023V13.7454ZM13.5669 13.4938C16.5956 13.4938 18.9919 15.0595 19.9238 17.408H26.0144C24.9161 12.4313 20.0236 9.04828 13.6335 9.04828C6.37794 9.04828 0.719971 13.6615 0.719971 19.8684C0.719971 26.0753 6.24482 30.6606 13.6335 30.6606C19.8905 30.6606 24.8828 27.2775 25.9812 22.2449H19.9238C19.0585 24.5655 16.6621 26.1871 13.6335 26.1871C9.43991 26.1871 6.51107 23.5031 6.51107 19.8684C6.51107 16.1778 9.40663 13.4938 13.5669 13.4938ZM165.134 17.8274L160.907 17.2962C158.877 17.0446 157.446 16.4854 157.446 15.1713C157.446 13.7174 159.31 12.9905 161.872 12.9905C164.668 12.9905 166.432 13.997 166.831 15.6466H172.39C171.757 11.4528 167.93 9.02032 162.006 9.02032C155.915 9.02032 151.854 11.6485 151.854 15.3391C151.854 18.8898 154.484 20.9309 159.842 21.5739L164.069 22.1051C166.133 22.3568 167.297 23.0278 167.297 24.3139C167.297 25.9635 165.267 26.6345 162.505 26.6345C159.077 26.6345 157.18 25.4602 156.88 23.6988H151.222C151.755 27.7528 155.549 30.6047 162.471 30.6047C168.762 30.6047 172.955 28.2002 172.955 24.0343C172.922 20.3717 169.893 18.4425 165.134 17.8274ZM62.0924 0.8563C59.9623 0.8563 58.398 2.14241 58.398 3.90383C58.398 5.66524 59.9956 6.95136 62.0924 6.95136C64.2224 6.95136 65.7867 5.66524 65.7867 3.90383C65.7867 2.14241 64.1891 0.8563 62.0924 0.8563ZM146.696 16.5413C146.696 12.0399 143.434 9.02032 136.511 9.02032C129.988 9.02032 126.327 11.7883 125.595 16.066H131.319C131.619 14.4164 133.15 13.0464 136.411 13.0464C139.34 13.0464 140.771 14.1368 140.771 15.4509C140.771 17.1843 138.142 17.6317 134.847 17.9113C130.421 18.3027 124.962 19.5888 124.962 24.4257C124.962 28.1722 128.291 30.5767 133.549 30.5767C137.676 30.5767 140.272 29.1228 141.57 26.8302C141.77 28.8712 143.6 30.2132 146.13 30.2132H149.491V25.9076H146.662L146.696 16.5413ZM141.004 21.7696C141.004 24.5376 138.109 26.6065 134.614 26.6065C132.451 26.6065 130.62 25.8516 130.62 24.23C130.62 22.189 133.549 21.6019 136.245 21.3782C138.841 21.1825 140.272 20.7072 141.004 19.7566V21.7696ZM110.418 9.02032C107.19 9.02032 104.494 10.1387 102.597 12.0399V0.660583H96.839V30.2132H102.497V27.4733C104.427 29.4304 107.156 30.6047 110.418 30.6047C117.341 30.6047 122.566 26.0194 122.566 19.8125C122.566 13.6056 117.241 9.02032 110.418 9.02032ZM109.553 26.1592C105.426 26.1592 102.397 23.4751 102.397 19.8405C102.397 16.2058 105.459 13.4938 109.586 13.4938C113.78 13.4938 116.708 16.1778 116.708 19.8405C116.708 23.4751 113.68 26.1592 109.553 26.1592ZM83.0269 9.02032C79.266 9.02032 76.8364 10.3064 75.4052 12.1238V9.4397H69.6807V30.2412H75.4385V18.9458C75.4385 15.7584 77.8348 13.5217 81.396 13.5217C84.7243 13.5217 86.7877 15.4789 86.7877 18.3586V30.2692H92.5456V17.9952C92.5456 12.7389 89.3172 9.02032 83.0269 9.02032ZM200.38 19.1694C200.38 13.2142 195.188 9.02032 188.232 9.02032C180.843 9.02032 175.418 13.6895 175.418 19.8405C175.418 26.3269 181.243 30.6326 188.332 30.6326C194.323 30.6326 199.049 27.669 200.247 23.4192H194.256C193.391 25.2645 191.294 26.3269 188.432 26.3269C184.737 26.3269 181.942 24.3978 181.309 21.0147H200.38V19.1694ZM181.642 17.5478C182.541 14.6401 185.137 13.2421 188.132 13.2421C191.394 13.2421 193.89 14.8078 194.489 17.5478H181.642Z" fill="white"/>
</svg>
