<svg width="42" height="36" viewBox="0 0 42 36" fill="none" xmlns="http://www.w3.org/2000/svg">
<path d="M40 8H42V28H40V34C40 34.5304 39.7893 35.0391 39.4142 35.4142C39.0391 35.7893 38.5304 36 38 36H2C1.46957 36 0.960859 35.7893 0.585786 35.4142C0.210714 35.0391 0 34.5304 0 34V2C0 1.46957 0.210714 0.960859 0.585786 0.585786C0.960859 0.210714 1.46957 0 2 0H38C38.5304 0 39.0391 0.210714 39.4142 0.585786C39.7893 0.960859 40 1.46957 40 2V8ZM36 28H24C21.3478 28 18.8043 26.9464 16.9289 25.0711C15.0536 23.1957 14 20.6522 14 18C14 15.3478 15.0536 12.8043 16.9289 10.9289C18.8043 9.05357 21.3478 8 24 8H36V4H4V32H36V28ZM38 24V12H24C22.4087 12 20.8826 12.6321 19.7574 13.7574C18.6321 14.8826 18 16.4087 18 18C18 19.5913 18.6321 21.1174 19.7574 22.2426C20.8826 23.3679 22.4087 24 24 24H38ZM24 16H30V20H24V16Z" fill="url(#paint0_linear_46_367)"/>
<defs>
<linearGradient id="paint0_linear_46_367" x1="21" y1="0" x2="21" y2="36" gradientUnits="userSpaceOnUse">
<stop stop-color="#F91A9F"/>
<stop offset="1" stop-color="#9933A2"/>
</linearGradient>
</defs>
</svg>
